<svg xmlns="http://www.w3.org/2000/svg" version="1.1" xmlns:xlink="http://www.w3.org/1999/xlink" xmlns:svgjs="http://svgjs.dev/svgjs" width="1500" height="1687" viewBox="0 0 1500 1687"><g transform="matrix(1,0,0,1,0.00011015625000254659,0)"><svg viewBox="0 0 320 360" data-background-color="#ea9937" preserveAspectRatio="xMidYMid meet" height="1687" width="1500" xmlns="http://www.w3.org/2000/svg" xmlns:xlink="http://www.w3.org/1999/xlink"><g id="tight-bounds" transform="matrix(1,0,0,1,0.000023499999997511622,0)"><svg viewBox="0 0 320 360" height="360" width="320"><g><svg></svg></g><g><svg viewBox="0 0 320 360" height="360" width="320"><g><path transform="translate(-74.99272,-51.79039) scale(4.65793,4.65793)" d="M20.6 59.9l0.8 1-0.4-1.3c-0.1-0.6-0.8 0.1-0.4 0.3M21.5 59.3c0.3 0.5 0.6 1 0.6 1.5 0 0.7 0.6 1 1.1 1.2-0.7-0.8-1.1-3-1.7-2.7M59.9 16.9c1.7 0 3.3-0.2 5.1 0.2 4.4 1.1 8.1 3.3 10.6 6.4l7 11.2c0.3 2.8 0.9 5.9 0.8 9.3 0.7 0 0.6-1 1.4-1.2-0.8 2-1.2 4.5-1.4 7.4-0.5-1.6 0-4 0.1-5.3-0.7 1.1-1.1 0.3-1.1-0.2 0.1-0.8-0.3-0.7-0.6-1-1.1-1-1.8-2.1-2.6-3.8 0.5-1.3 0.6-3.2-1-4.2-0.5-0.3-1.1-0.8-1.4-1.6-0.4-1.1-1.1-2.4-0.9-4.1 0.1-0.5-1.5 1.1-2.4 0.4-3.9-2.7-7.8-5.8-12.5-8.4-2.5 0-4.3-0.9-5.2-2-0.8-1-0.2-2.3 1-2.4 0.7 0 1.5-0.2 2.1 0.2 0.1-0.4 0.5-0.9 1-0.9M50 14.6l0.2 0.1c1 0.2 1.5 1.6 2.6 1.1 0 0.7 0.1 1.4-0.1 1.9-0.3 0.8-1.2 0.8-1.9 0.8-6.7-0.4-10.6 2.4-14.7 4.8-1.1 0.7-2.3 1.2-3.2 2.1-4.3 4-9 7.7-10.1 15.1l-0.9 8.2c-0.1 0.9-1.1 1.8-0.9 2.9l0.7 4.9c-0.7-0.7-1.1 0.2-0.9 0.6 0.1 0.3 0.5 1.3 1.1 0.4 0.8 1.5 1.6 4.4 2.7 5.7 3.4 4 7.8 7.6 11.4 11.2 0.9-0.2 1.6-0.2 1.8-0.8 0.3 0.6-0.3 1.2-0.8 1.3 1.6 1 3.4 1.9 5.8 2.1 3.1 0.2 6 0.7 8.7 1.4 1.4-0.4 2.8-0.6 4.3-0.7 0.5 0 0.8-0.8 1.4-1l0.1-1c0.6 0.9 0.5-0.3 0.1-0.9 0.7 0.6 0.9 1.1 1.2 1.5 0-0.3 0.8-1.4 0.8-0.1l0.2-1.3c0.3-0.2 0.4 1.1 0.7 0.2 0.3-0.9 0.9-0.2 1.5-0.5-0.2 0.4-0.1 1.2 0.6 0.7l0.8-0.7c0.5 1.2 1.3 0.7 1.7 0.5 4.4-2.8 8.8-6.1 13-9.4l-0.1 1.3 0.5-1.6c0.5 0.5 0.9 0.1 1.1-0.2 0.6-1 1.4-2 2.7-2.9-1.6 4.3-3.5 7.7-5.9 10.5l-1 1.2c0 0.7-0.2 1.6-1 1.7-0.4 0.1-1.2-0.2-1.8 0.4-0.3 0.4 0.7 1.2-0.1 0.6-0.7-0.5-1.4 0-2.2 0.2-0.6 0.2 0.4 0.8 0.6 1.2 0.2 0.4 0.4 0.8 0.3 1.3l-1.1-1.2c-1.3 0.7-2.1 2-3.2 3-0.5 0.4-0.3 1.1-0.3 1.7-0.7 0-1.5-0.2-1.9 0.2-0.3 0.4-0.2 1-0.2 1.6-1-0.1-1.1-1.6-2-1.3-0.9 0.2-1.9 0.3-2.7 0.8 0.6 1.2-1 0.5-0.8 0.7-1.5-0.9-2.8-1.6-4.4-1-3.4-1.1-7.6-0.6-10.7-0.2 0-0.5 0.1-1-0.1-1.1-0.2 0.5-0.8 0.3-0.7 0.3-1.9-1.3-3.8-2.1-5.8-3.2-1.8 0.2-3.5-0.7-4-1.2-1.4-1.3-3-0.6-4.3-0.9-2.8-0.7-3.8-3.6-4.1-5.6-0.2-1-1-1.4-1.3-1.3-1.3-4.2-3.3-8-4.9-11.9-0.4-1-0.3-2-0.3-3.1 0.5 0.2 1 0.1 0.9-0.6-0.5-3.3-1.7-5.8-3-8.2 0.7-3.4 0.8-7.4 2.4-10.4 1.4-2.7 4-4.1 5.8-6.4 0.6-0.8 0.6-1.9 1.2-2.6 2-2 4-4.1 6.2-5.9 1-0.8 2.2 0 3.7-0.3 0.5-1.8 2.5-3.4 4.4-2.9 0.8 0.2 2.4-1.9 2.9-2.1 0.8-0.3 0.4 0.8 0.4 1.5 1.9-1.5 4.5-2.3 6.9-3.2" fill="#ea3c12" fill-rule="nonzero" stroke="none" stroke-width="1" stroke-linecap="butt" stroke-linejoin="miter" stroke-miterlimit="10" stroke-dasharray="" stroke-dashoffset="0" font-family="none" font-weight="none" font-size="none" text-anchor="none" style="mix-blend-mode: normal" data-fill-palette-color="tertiary"></path></g><g transform="matrix(1,0,0,1,76.86850784645725,90)"><svg viewBox="0 0 166.2629843070855 180" height="180" width="166.2629843070855"><g><svg viewBox="0 0 166.2629843070855 180" height="180" width="166.2629843070855"><g><svg viewBox="0 0 192 207.86346488385016" height="180" width="166.2629843070855"><g transform="matrix(1,0,0,1,0,142.02265718360036)"><svg viewBox="0 0 192 65.8408077002498" height="65.8408077002498" width="192"><g id="textblocktransform"><svg viewBox="0 0 192 65.8408077002498" height="65.8408077002498" width="192" id="textblock"><g><svg viewBox="0 0 192 37.928393005828475" height="37.928393005828475" width="192"><g transform="matrix(1,0,0,1,0,0)"><svg width="192" viewBox="3.95 -40.45 240.18 47.45" height="37.928393005828475" data-palette-color="#ea3c12"><path d="M12-39.7L22.9-39.7Q24.2-39.7 25.6-39.15 27-38.6 28.3-37.75L28.3-37.75 28.25-37.75Q29.55-36.8 30.25-35.27 30.95-33.75 30.95-31.75L30.95-31.75 30.95-8Q30.95-3.95 28.25-1.95L28.25-1.95Q26.95-1 25.58-0.48 24.2 0.05 22.9 0.05L22.9 0.05 12 0.05Q10.7 0.05 9.33-0.48 7.95-1 6.65-1.95L6.65-1.95Q5.35-2.95 4.65-4.42 3.95-5.9 3.95-8L3.95-8 3.95-31.75Q3.95-33.75 4.65-35.27 5.35-36.8 6.65-37.75L6.65-37.75 6.6-37.75Q7.9-38.6 9.3-39.15 10.7-39.7 12-39.7L12-39.7ZM13.25-5L21.65-5Q23.5-5 24.25-6.05 25-7.1 25-8.4L25-8.4 25-31.3Q25-32.55 24.25-33.6 23.5-34.65 21.65-34.65L21.65-34.65 13.25-34.65Q11.4-34.65 10.65-33.6 9.9-32.55 9.9-31.3L9.9-31.3 9.9-8.4Q9.9-7.1 10.65-6.05 11.4-5 13.25-5L13.25-5ZM54.1 0L48.15 0Q46.35 0 46.25-2.35L46.25-2.35Q46.25-4.7 48.15-4.7L48.15-4.7 53.2-4.7Q55.05-4.7 55.82-5.75 56.6-6.8 56.6-8L56.6-8 56.6-22.1Q56.6-23.35 55.82-24.43 55.05-25.5 53.15-25.4L53.15-25.4 43.55-25.4 43.55 4.65Q43.55 7 40.8 7L40.8 7Q38.05 7 38.05 4.6L38.05 4.6 38.05-27.15Q38.05-28.9 38.95-29.5 39.85-30.1 41.15-30.1L41.15-30.1 54.1-30.1Q55.4-30.1 56.72-29.65 58.05-29.2 59.45-28.4L59.45-28.4Q60.65-27.55 61.37-26.03 62.1-24.5 62.1-22.45L62.1-22.45 62.1-7.65Q62.1-3.55 59.45-1.8L59.45-1.8Q56.65 0 54.1 0L54.1 0ZM73.84-22.15L73.84-8Q73.84-6.8 74.62-5.75 75.4-4.7 77.25-4.7L77.25-4.7 83.5-4.7Q85.34-4.7 86.12-5.63 86.9-6.55 86.9-7.75L86.9-7.75 86.9-8.3Q86.9-10.65 89.65-10.65L89.65-10.65Q92.4-10.65 92.4-8.3L92.4-8.3 92.4-7.7Q92.4-5.6 91.72-4.25 91.05-2.9 89.7-1.9L89.7-1.9Q87.05 0 84.4 0L84.4 0 76 0Q73.34 0 70.84-1.9L70.84-1.9Q69.64-2.9 69-4.42 68.34-5.95 68.34-7.95L68.34-7.95 68.34-22.2Q68.34-26.25 70.84-28.2L70.84-28.2Q72.09-29.1 73.42-29.63 74.75-30.15 76-30.15L76-30.15 84.4-30.15Q85.59-30.15 87.05-29.68 88.5-29.2 89.75-28.4L89.75-28.4Q90.95-27.55 91.67-26.05 92.4-24.55 92.4-22.5L92.4-22.5 92.4-15.75Q92.4-14.6 91.72-13.7 91.05-12.8 89.25-12.8L89.25-12.8 78.45-12.8Q76.65-12.8 76.55-15.15L76.55-15.15Q76.55-17.5 78.45-17.5L78.45-17.5 86.95-17.5 86.9-22.15Q86.9-23.4 86.12-24.43 85.34-25.45 83.5-25.45L83.5-25.45 77.25-25.45Q75.4-25.45 74.62-24.43 73.84-23.4 73.84-22.15L73.84-22.15ZM104.24-21.75L104.24-2.1Q104.24 0.3 101.49 0.3L101.49 0.3Q98.74 0.3 98.74-2.1L98.74-2.1 98.74-22.2Q98.74-24.25 99.39-25.75 100.04-27.25 101.44-28.2L101.44-28.2Q104.09-30.1 106.74-30.1L106.74-30.1 114.79-30.1Q117.34-30.1 120.09-28.2L120.09-28.2Q122.79-26.3 122.79-22.2L122.79-22.2 122.79-2.1Q122.79 0.3 120.04 0.3L120.04 0.3Q117.29 0.3 117.29-2.1L117.29-2.1 117.29-21.75Q117.29-23.05 116.49-24.25L116.49-24.25 116.54-24.2Q115.89-25.4 113.89-25.4L113.89-25.4 107.64-25.4Q105.59-25.4 104.94-24.2L104.94-24.2Q104.24-23.15 104.24-21.75L104.24-21.75ZM143.04-34.65L143.04-2Q143.04 0.4 140.04 0.4L140.04 0.4Q137.09 0.4 137.09-2L137.09-2 137.09-34.65 128.34-34.65Q126.54-34.65 126.44-37.2L126.44-37.2Q126.44-39.7 128.34-39.7L128.34-39.7 151.79-39.7Q153.69-39.7 153.59-37.2L153.59-37.2Q153.59-34.65 151.79-34.65L151.79-34.65 143.04-34.65ZM162.99-22.75L162.99-2.1Q162.99 0.3 160.24 0.3L160.24 0.3Q157.39 0.3 157.39-2.1L157.39-2.1 157.39-22.8Q157.39-26.9 159.84-28.5L159.84-28.5Q162.29-30.1 165.49-30.1L165.49-30.1 171.19-30.1Q173.04-30.1 173.04-27.75L173.04-27.75Q173.14-25.4 171.19-25.4L171.19-25.4 165.89-25.4Q164.09-25.4 163.54-24.7 162.99-24 162.99-22.75L162.99-22.75ZM182.94-27.9L182.94-2.1Q182.94 0.3 180.19 0.3L180.19 0.3Q177.39 0.3 177.39-2.1L177.39-2.1 177.39-27.9Q177.39-30.3 180.19-30.3L180.19-30.3Q182.94-30.3 182.94-27.9L182.94-27.9ZM183.99-36.6L183.99-36.6Q183.99-35 182.89-33.9 181.79-32.8 180.19-32.8L180.19-32.8Q178.59-32.8 177.46-33.9 176.34-35 176.34-36.6L176.34-36.6Q176.34-38.25 177.46-39.35 178.59-40.45 180.19-40.45L180.19-40.45Q181.79-40.45 182.89-39.35 183.99-38.25 183.99-36.6ZM195.38-25.4L195.33-2.1Q195.33-0.9 194.48-0.3 193.63 0.3 192.63 0.3L192.63 0.3Q189.88 0.3 189.88-2.1L189.88-2.1 189.88-37.6Q189.88-40 192.63-40L192.63-40Q195.38-40 195.38-37.6L195.38-37.6 195.38-30.1 205.93-30.1Q208.48-30.1 211.23-28.2L211.23-28.2Q213.93-26.3 213.93-22.2L213.93-22.2 213.93-7.3Q213.93-3.15 211.48-1.6L211.48-1.6Q209.03 0 205.88 0L205.88 0 199.98 0Q198.18 0 198.08-2.35L198.08-2.35Q198.08-4.7 199.98-4.7L199.98-4.7 204.98-4.7Q206.83-4.7 207.63-5.38 208.43-6.05 208.43-7.35L208.43-7.35 208.43-21.75Q208.43-23.05 207.63-24.25L207.63-24.25 207.68-24.2Q207.03-25.4 205.03-25.4L205.03-25.4 195.38-25.4ZM225.58-22.15L225.58-8Q225.58-6.8 226.36-5.75 227.13-4.7 228.98-4.7L228.98-4.7 235.23-4.7Q237.08-4.7 237.86-5.63 238.63-6.55 238.63-7.75L238.63-7.75 238.63-8.3Q238.63-10.65 241.38-10.65L241.38-10.65Q244.13-10.65 244.13-8.3L244.13-8.3 244.13-7.7Q244.13-5.6 243.46-4.25 242.78-2.9 241.43-1.9L241.43-1.9Q238.78 0 236.13 0L236.13 0 227.73 0Q225.08 0 222.58-1.9L222.58-1.9Q221.38-2.9 220.73-4.42 220.08-5.95 220.08-7.95L220.08-7.95 220.08-22.2Q220.08-26.25 222.58-28.2L222.58-28.2Q223.83-29.1 225.16-29.63 226.48-30.15 227.73-30.15L227.73-30.15 236.13-30.15Q237.33-30.15 238.78-29.68 240.23-29.2 241.48-28.4L241.48-28.4Q242.68-27.55 243.41-26.05 244.13-24.55 244.13-22.5L244.13-22.5 244.13-15.75Q244.13-14.6 243.46-13.7 242.78-12.8 240.98-12.8L240.98-12.8 230.18-12.8Q228.38-12.8 228.28-15.15L228.28-15.15Q228.28-17.5 230.18-17.5L230.18-17.5 238.68-17.5 238.63-22.15Q238.63-23.4 237.86-24.43 237.08-25.45 235.23-25.45L235.23-25.45 228.98-25.45Q227.13-25.45 226.36-24.43 225.58-23.4 225.58-22.15L225.58-22.15Z" opacity="1" transform="matrix(1,0,0,1,0,0)" fill="#ea3c12" class="wordmark-text-0" data-fill-palette-color="primary" id="text-0"></path></svg></g></svg></g><g transform="matrix(1,0,0,1,0,43.46305582681099)"><svg viewBox="0 0 192 22.3777518734388" height="22.3777518734388" width="192"><g transform="matrix(1,0,0,1,0,0)"><svg width="192" viewBox="1 -31.05 365.08 42.55" height="22.3777518734388" data-palette-color="#ffbe79"><path d="M12.75 0L1 0 1-0.5 1.7-0.7Q2.65-0.95 3.03-1.55 3.4-2.15 3.45-3.15L3.45-3.15 3.45-18.8Q3.45-19.9 3.1-20.43 2.75-20.95 1.75-21.15L1.75-21.15 1-21.35 1-21.85 9.55-24.75 10.05-24.25 10.45-20.85Q12.1-22.5 14.23-23.65 16.35-24.8 18.65-24.8L18.65-24.8Q21.05-24.8 22.5-23.83 23.95-22.85 24.7-20.8L24.7-20.8Q26.65-22.65 28.93-23.73 31.2-24.8 33.35-24.8L33.35-24.8Q36.9-24.8 38.58-23.1 40.25-21.4 40.25-17.75L40.25-17.75 40.25-3.1Q40.25-1.15 42.05-0.65L42.05-0.65 42.6-0.5 42.6 0 31.05 0 31.05-0.5 31.55-0.65Q32.5-0.95 32.88-1.55 33.25-2.15 33.25-3.15L33.25-3.15 33.25-18.45Q33.25-20.55 32.5-21.33 31.75-22.1 30.1-22.1L30.1-22.1Q28.8-22.1 27.58-21.53 26.35-20.95 25-19.8L25-19.8Q25.25-19 25.33-18.05 25.4-17.1 25.4-16.05L25.4-16.05 25.4-3.1Q25.45-1.15 27.2-0.65L27.2-0.65 27.65-0.5 27.65 0 16.05 0 16.05-0.5 16.75-0.7Q17.7-1 18.07-1.58 18.45-2.15 18.45-3.15L18.45-3.15 18.45-18.4Q18.45-20.4 17.73-21.25 17-22.1 15.25-22.1L15.25-22.1Q14.1-22.1 12.95-21.53 11.8-20.95 10.55-19.85L10.55-19.85 10.55-3.1Q10.55-1.15 12.3-0.65L12.3-0.65 12.75-0.5 12.75 0ZM58.24-24.8L58.24-24.8Q61.49-24.8 63.79-23.48 66.09-22.15 67.32-19.88 68.54-17.6 68.54-14.7L68.54-14.7Q68.54-14.15 68.49-13.58 68.44-13 68.29-12.55L68.29-12.55 53.39-12.55Q53.44-7.15 55.32-4.78 57.19-2.4 60.89-2.4L60.89-2.4Q63.39-2.4 64.94-3.2 66.49-4 67.84-5.55L67.84-5.55 68.34-5.1Q66.79-2.35 64.22-0.8 61.64 0.75 58.04 0.75L58.04 0.75Q54.49 0.75 51.74-0.78 48.99-2.3 47.44-5.15 45.89-8 45.89-11.95L45.89-11.95Q45.89-16.05 47.69-18.93 49.49-21.8 52.32-23.3 55.14-24.8 58.24-24.8ZM58.09-23.8L58.09-23.8Q56.64-23.8 55.62-22.93 54.59-22.05 54.02-19.83 53.44-17.6 53.39-13.55L53.39-13.55 61.94-13.55Q62.44-19 61.54-21.4 60.64-23.8 58.09-23.8ZM84.73-24.8L84.73-24.8Q87.98-24.8 90.28-23.48 92.58-22.15 93.81-19.88 95.03-17.6 95.03-14.7L95.03-14.7Q95.03-14.15 94.98-13.58 94.93-13 94.78-12.55L94.78-12.55 79.88-12.55Q79.93-7.15 81.81-4.78 83.68-2.4 87.38-2.4L87.38-2.4Q89.88-2.4 91.43-3.2 92.98-4 94.33-5.55L94.33-5.55 94.83-5.1Q93.28-2.35 90.71-0.8 88.13 0.75 84.53 0.75L84.53 0.75Q80.98 0.75 78.23-0.78 75.48-2.3 73.93-5.15 72.38-8 72.38-11.95L72.38-11.95Q72.38-16.05 74.18-18.93 75.98-21.8 78.81-23.3 81.63-24.8 84.73-24.8ZM84.58-23.8L84.58-23.8Q83.13-23.8 82.11-22.93 81.08-22.05 80.51-19.83 79.93-17.6 79.88-13.55L79.88-13.55 88.43-13.55Q88.93-19 88.03-21.4 87.13-23.8 84.58-23.8ZM108.17 0.75L108.17 0.75Q104.97 0.75 103.2-0.85 101.42-2.45 101.42-5.95L101.42-5.95 101.42-23.05 97.97-23.05 97.97-23.55 99.17-23.75Q100.72-24.1 101.85-24.75 102.97-25.4 104.07-26.5L104.07-26.5 108.17-31.05 108.67-31.05 108.52-24.05 114.12-24.05 114.12-23.05 108.47-23.05 108.47-5.05Q108.47-3.3 109.25-2.4 110.02-1.5 111.22-1.5L111.22-1.5Q112.27-1.5 113.07-2.02 113.87-2.55 114.67-3.45L114.67-3.45 115.17-2.95Q114.17-1.25 112.42-0.25 110.67 0.75 108.17 0.75ZM137.21 0.75L137.21 0.75Q134.31 0.75 132.33-0.9 130.36-2.55 130.36-5.65L130.36-5.65Q130.36-8 132.76-9.98 135.16-11.95 140.31-12.95L140.31-12.95Q141.11-13.1 142.11-13.28 143.11-13.45 144.21-13.65L144.21-13.65 144.21-17.6Q144.21-21 143.38-22.38 142.56-23.75 140.81-23.75L140.81-23.75Q139.61-23.75 138.91-22.98 138.21-22.2 138.01-20.3L138.01-20.3 137.91-19.75Q137.81-17.6 136.86-16.6 135.91-15.6 134.51-15.6L134.51-15.6Q133.21-15.6 132.36-16.4 131.51-17.2 131.51-18.55L131.51-18.55Q131.51-20.6 132.93-22 134.36-23.4 136.71-24.1 139.06-24.8 141.81-24.8L141.81-24.8Q146.26-24.8 148.68-22.63 151.11-20.45 151.11-15.55L151.11-15.55 151.11-4.5Q151.11-2.25 153.21-2.25L153.21-2.25 154.31-2.25 154.76-1.85Q153.81-0.65 152.68 0 151.56 0.65 149.51 0.65L149.51 0.65Q147.31 0.65 146.03-0.38 144.76-1.4 144.36-3.1L144.36-3.1Q142.86-1.5 141.28-0.38 139.71 0.75 137.21 0.75ZM140.26-2.3L140.26-2.3Q141.26-2.3 142.13-2.78 143.01-3.25 144.21-4.25L144.21-4.25 144.21-12.65Q143.71-12.55 143.21-12.45 142.71-12.35 142.06-12.25L142.06-12.25Q139.76-11.65 138.38-10.23 137.01-8.8 137.01-6.4L137.01-6.4Q137.01-4.35 137.96-3.33 138.91-2.3 140.26-2.3ZM177.64 0.75L177.64 0.75Q175.19 0.75 173.24 0.18 171.29-0.4 169.64-1.25L169.64-1.25 169.69-7.2 170.19-7.2 171.89-4.2Q172.99-2.2 174.31-1.23 175.64-0.25 177.69-0.25L177.69-0.25Q180.09-0.25 181.56-1.33 183.04-2.4 183.04-4.2L183.04-4.2Q183.04-5.85 181.99-6.9 180.94-7.95 178.09-8.8L178.09-8.8 175.99-9.45Q172.94-10.35 171.19-12.25 169.44-14.15 169.44-16.9L169.44-16.9Q169.44-20.2 172.04-22.5 174.64-24.8 179.49-24.8L179.49-24.8Q181.44-24.8 183.16-24.38 184.89-23.95 186.49-23.1L186.49-23.1 186.19-17.7 185.69-17.7 183.94-20.8Q182.99-22.45 182.06-23.13 181.14-23.8 179.29-23.8L179.29-23.8Q177.59-23.8 176.09-22.85 174.59-21.9 174.59-20.15L174.59-20.15Q174.59-18.45 175.86-17.45 177.14-16.45 179.64-15.6L179.64-15.6 181.89-14.95Q185.49-13.85 187.04-11.93 188.59-10 188.59-7.3L188.59-7.3Q188.59-3.65 185.71-1.45 182.84 0.75 177.64 0.75ZM201.43 0.75L201.43 0.75Q198.23 0.75 196.45-0.85 194.68-2.45 194.68-5.95L194.68-5.95 194.68-23.05 191.23-23.05 191.23-23.55 192.43-23.75Q193.98-24.1 195.1-24.75 196.23-25.4 197.33-26.5L197.33-26.5 201.43-31.05 201.93-31.05 201.78-24.05 207.38-24.05 207.38-23.05 201.73-23.05 201.73-5.05Q201.73-3.3 202.5-2.4 203.28-1.5 204.48-1.5L204.48-1.5Q205.53-1.5 206.33-2.02 207.13-2.55 207.93-3.45L207.93-3.45 208.43-2.95Q207.43-1.25 205.68-0.25 203.93 0.75 201.43 0.75ZM224.07 0L211.12 0 211.12-0.5 211.87-0.7Q212.87-1 213.25-1.6 213.62-2.2 213.62-3.15L213.62-3.15 213.62-18.8Q213.62-19.9 213.25-20.43 212.87-20.95 211.87-21.15L211.87-21.15 211.12-21.35 211.12-21.85 219.72-24.75 220.22-24.25 220.67-19.95 220.67-19.55Q221.37-20.95 222.5-22.13 223.62-23.3 225-24.05 226.37-24.8 227.72-24.8L227.72-24.8Q229.62-24.8 230.62-23.75 231.62-22.7 231.62-21.1L231.62-21.1Q231.62-19.4 230.65-18.48 229.67-17.55 228.32-17.55L228.32-17.55Q226.22-17.55 224.62-19.65L224.62-19.65 224.52-19.75Q224.02-20.45 223.37-20.53 222.72-20.6 222.17-19.9L222.17-19.9Q221.67-19.45 221.35-18.82 221.02-18.2 220.72-17.4L220.72-17.4 220.72-3.45Q220.72-1.45 222.47-0.95L222.47-0.95 224.07-0.5 224.07 0ZM241.61 0.75L241.61 0.75Q238.71 0.75 236.74-0.9 234.76-2.55 234.76-5.65L234.76-5.65Q234.76-8 237.16-9.98 239.56-11.95 244.71-12.95L244.71-12.95Q245.51-13.1 246.51-13.28 247.51-13.45 248.61-13.65L248.61-13.65 248.61-17.6Q248.61-21 247.79-22.38 246.96-23.75 245.21-23.75L245.21-23.75Q244.01-23.75 243.31-22.98 242.61-22.2 242.41-20.3L242.41-20.3 242.31-19.75Q242.21-17.6 241.26-16.6 240.31-15.6 238.91-15.6L238.91-15.6Q237.61-15.6 236.76-16.4 235.91-17.2 235.91-18.55L235.91-18.55Q235.91-20.6 237.34-22 238.76-23.4 241.11-24.1 243.46-24.8 246.21-24.8L246.21-24.8Q250.66-24.8 253.09-22.63 255.51-20.45 255.51-15.55L255.51-15.55 255.51-4.5Q255.51-2.25 257.61-2.25L257.61-2.25 258.71-2.25 259.16-1.85Q258.21-0.65 257.09 0 255.96 0.65 253.91 0.65L253.91 0.65Q251.71 0.65 250.44-0.38 249.16-1.4 248.76-3.1L248.76-3.1Q247.26-1.5 245.69-0.38 244.11 0.75 241.61 0.75ZM244.66-2.3L244.66-2.3Q245.66-2.3 246.54-2.78 247.41-3.25 248.61-4.25L248.61-4.25 248.61-12.65Q248.11-12.55 247.61-12.45 247.11-12.35 246.46-12.25L246.46-12.25Q244.16-11.65 242.79-10.23 241.41-8.8 241.41-6.4L241.41-6.4Q241.41-4.35 242.36-3.33 243.31-2.3 244.66-2.3ZM273.1 0L261.35 0 261.35-0.5 262.05-0.7Q263.8-1.2 263.8-3.15L263.8-3.15 263.8-18.8Q263.8-19.9 263.45-20.43 263.1-20.95 262.1-21.15L262.1-21.15 261.35-21.35 261.35-21.85 269.9-24.75 270.4-24.25 270.8-21.25Q272.55-22.8 274.75-23.8 276.95-24.8 279.1-24.8L279.1-24.8Q282.4-24.8 284.18-23 285.95-21.2 285.95-17.5L285.95-17.5 285.95-3.1Q285.95-1.15 287.85-0.65L287.85-0.65 288.3-0.5 288.3 0 276.5 0 276.5-0.5 277.15-0.7Q278.9-1.25 278.9-3.15L278.9-3.15 278.9-19.1Q278.9-22.3 275.7-22.3L275.7-22.3Q273.5-22.3 270.9-20.1L270.9-20.1 270.9-3.1Q270.9-1.15 272.65-0.65L272.65-0.65 273.1-0.5 273.1 0ZM302.29-8.65L302.29-8.65Q298.84-8.65 296.44-9.8L296.44-9.8 296.44-8.1Q296.44-6.55 297.99-6.25L297.99-6.25 307.39-4.5Q309.74-4.05 311.64-3.33 313.54-2.6 314.69-1.28 315.84 0.05 315.84 2.35L315.84 2.35Q315.84 4.8 314.24 6.88 312.64 8.95 309.52 10.23 306.39 11.5 301.74 11.5L301.74 11.5Q297.74 11.5 295.39 10.68 293.04 9.85 292.07 8.55 291.09 7.25 291.09 5.8L291.09 5.8Q291.09 4 292.32 2.18 293.54 0.35 295.34-0.75L295.34-0.75Q293.79-1.35 293.09-2.3 292.39-3.25 292.39-4.35L292.39-4.35Q292.39-5.35 292.92-6.23 293.44-7.1 294.19-8L294.19-8 295.84-10.1Q292.19-12.2 292.19-16.7L292.19-16.7Q292.19-20.3 294.77-22.55 297.34-24.8 302.34-24.8L302.34-24.8Q304.89-24.8 306.82-24.2 308.74-23.6 309.99-22.5L309.99-22.5Q311.59-22.75 313.02-23.33 314.44-23.9 315.59-24.9L315.59-24.9 316.29-24.4 316.29-21.85 310.64-21.85Q312.44-19.85 312.44-16.7L312.44-16.7Q312.44-13.2 309.87-10.93 307.29-8.65 302.29-8.65ZM302.24-9.65L302.24-9.65Q304.24-9.65 305.17-11.3 306.09-12.95 306.09-16.8L306.09-16.8Q306.09-20.65 305.17-22.23 304.24-23.8 302.34-23.8L302.34-23.8Q300.49-23.8 299.54-22.18 298.59-20.55 298.59-16.7L298.59-16.7Q298.59-12.85 299.47-11.25 300.34-9.65 302.24-9.65ZM294.79 4.2L294.79 4.2Q294.79 7.15 296.62 8.65 298.44 10.15 302.39 10.15L302.39 10.15Q306.54 10.15 308.64 8.8 310.74 7.45 310.74 5L310.74 5Q310.74 3.6 309.72 2.75 308.69 1.9 306.24 1.45L306.24 1.45 297.19-0.25Q296.79-0.35 296.39-0.45L296.39-0.45Q295.69 0.55 295.24 1.83 294.79 3.1 294.79 4.2ZM331.64-24.8L331.64-24.8Q334.89-24.8 337.19-23.48 339.49-22.15 340.71-19.88 341.94-17.6 341.94-14.7L341.94-14.7Q341.94-14.15 341.89-13.58 341.84-13 341.69-12.55L341.69-12.55 326.79-12.55Q326.84-7.15 328.71-4.78 330.59-2.4 334.29-2.4L334.29-2.4Q336.79-2.4 338.34-3.2 339.89-4 341.24-5.55L341.24-5.55 341.74-5.1Q340.19-2.35 337.61-0.8 335.04 0.75 331.44 0.75L331.44 0.75Q327.89 0.75 325.14-0.78 322.39-2.3 320.84-5.15 319.29-8 319.29-11.95L319.29-11.95Q319.29-16.05 321.09-18.93 322.89-21.8 325.71-23.3 328.54-24.8 331.64-24.8ZM331.49-23.8L331.49-23.8Q330.04-23.8 329.01-22.93 327.99-22.05 327.41-19.83 326.84-17.6 326.79-13.55L326.79-13.55 335.34-13.55Q335.84-19 334.94-21.4 334.04-23.8 331.49-23.8ZM358.53 0L345.58 0 345.58-0.5 346.33-0.7Q347.33-1 347.7-1.6 348.08-2.2 348.08-3.15L348.08-3.15 348.08-18.8Q348.08-19.9 347.7-20.43 347.33-20.95 346.33-21.15L346.33-21.15 345.58-21.35 345.58-21.85 354.18-24.75 354.68-24.25 355.13-19.95 355.13-19.55Q355.83-20.95 356.95-22.13 358.08-23.3 359.45-24.05 360.83-24.8 362.18-24.8L362.18-24.8Q364.08-24.8 365.08-23.75 366.08-22.7 366.08-21.1L366.08-21.1Q366.08-19.4 365.1-18.48 364.13-17.55 362.78-17.55L362.78-17.55Q360.68-17.55 359.08-19.65L359.08-19.65 358.98-19.75Q358.48-20.45 357.83-20.53 357.18-20.6 356.63-19.9L356.63-19.9Q356.13-19.45 355.8-18.82 355.48-18.2 355.18-17.4L355.18-17.4 355.18-3.45Q355.18-1.45 356.93-0.95L356.93-0.95 358.53-0.5 358.53 0Z" opacity="1" transform="matrix(1,0,0,1,0,0)" fill="#ffbe79" class="slogan-text-1" data-fill-palette-color="secondary" id="text-1"></path></svg></g></svg></g></svg></g></svg></g><g transform="matrix(1,0,0,1,26.430399584958508,0)"><svg viewBox="0 0 139.13920083008298 136.48799436261785" height="136.48799436261785" width="139.13920083008298"><g><svg xmlns="http://www.w3.org/2000/svg" xmlns:xlink="http://www.w3.org/1999/xlink" version="1.1" x="0" y="0" viewBox="14.15475 14.837760824557641 71.69024999999999 70.32423917544236" enable-background="new 0 0 100 100" xml:space="preserve" height="136.48799436261785" width="139.13920083008298" class="icon-icon-0" data-fill-palette-color="accent" id="icon-0"><g fill="#ffbe79" data-fill-palette-color="accent"><g fill="#ffbe79" data-fill-palette-color="accent"><path d="M55.41 52.471c-0.388 0-0.788-0.143-1.189-0.425-0.324-0.229-0.632-0.528-0.971-0.869-0.306-0.303-0.576-0.572-0.837-0.76-0.451-0.313-0.754-0.323-1.227 0.005-0.259 0.186-0.533 0.458-0.824 0.747-0.345 0.346-0.649 0.644-0.971 0.874-0.839 0.581-1.571 0.569-2.383 0.004-0.349-0.246-0.679-0.577-0.971-0.87-0.299-0.297-0.574-0.57-0.838-0.76-0.453-0.314-0.766-0.317-1.229 0.005-0.249 0.179-0.513 0.44-0.793 0.719-0.374 0.375-0.68 0.674-1.005 0.904-0.812 0.57-1.57 0.569-2.379 0.001-0.329-0.233-0.646-0.545-0.968-0.87-0.306-0.302-0.578-0.57-0.84-0.759-0.225-0.161-0.276-0.473-0.115-0.697 0.161-0.226 0.475-0.275 0.697-0.115 0.326 0.234 0.641 0.544 0.944 0.844 0.313 0.316 0.596 0.595 0.858 0.78 0.455 0.32 0.765 0.321 1.226-0.001 0.26-0.184 0.532-0.451 0.836-0.756 0.336-0.334 0.641-0.637 0.962-0.867 0.822-0.571 1.567-0.569 2.382-0.004 0.336 0.241 0.651 0.555 0.957 0.858 0.275 0.275 0.572 0.574 0.849 0.77 0.463 0.321 0.752 0.329 1.233-0.003 0.252-0.181 0.525-0.449 0.829-0.754 0.318-0.316 0.635-0.63 0.965-0.867 0.833-0.58 1.567-0.571 2.381-0.004 0.331 0.238 0.644 0.549 0.945 0.849 0.271 0.271 0.58 0.582 0.86 0.778 0.457 0.322 0.768 0.321 1.225 0.001 0.262-0.186 0.544-0.464 0.833-0.756 0.355-0.354 0.65-0.64 0.97-0.868 0.812-0.57 1.562-0.569 2.376-0.004 0.349 0.248 0.679 0.579 0.971 0.87 0.308 0.297 0.562 0.536 0.861 0.774 0.217 0.172 0.253 0.486 0.081 0.702-0.173 0.218-0.486 0.253-0.702 0.081-0.325-0.258-0.603-0.517-0.941-0.845-0.27-0.27-0.569-0.569-0.845-0.766-0.46-0.318-0.761-0.321-1.223 0.002-0.274 0.197-0.575 0.496-0.84 0.759-0.319 0.322-0.636 0.634-0.964 0.866C56.198 52.327 55.798 52.471 55.41 52.471z" fill="#ffbe79" data-fill-palette-color="accent"></path></g><path d="M85.604 83.51L51.152 23.838l4.254-7.368c0.276-0.479 0.112-1.09-0.366-1.366-0.478-0.275-1.09-0.112-1.366 0.366l-3.681 6.375-3.756-6.507c-0.277-0.479-0.89-0.642-1.366-0.366-0.479 0.276-0.643 0.888-0.366 1.366l4.326 7.494-34.542 59.83c-0.179 0.31-0.179 0.69 0 1s0.509 0.5 0.866 0.5h69.67c0.008 0 0.015 0 0.02 0 0.553 0 1-0.447 1-1C85.845 83.913 85.754 83.686 85.604 83.51zM65.043 83.162L50 57.107 34.958 83.162h-18.07l3.63-6.287c0.017-0.023 0.038-0.043 0.053-0.068l29.423-50.962 29.347 50.83c0.009 0.015 0.021 0.024 0.03 0.039l3.723 6.448H65.043z" fill="#ffbe79" data-fill-palette-color="accent"></path></g></svg></g></svg></g><g></g></svg></g></svg></g></svg></g></svg></g><defs></defs></svg><rect width="320" height="360" fill="none" stroke="none" visibility="hidden"></rect></g></svg></g></svg>